# xmcd
#
# Track frame offsets:
#  150
#  13175
#  23202
#  35740
#  52642
#  69837
#  85537
#  98070
#  114712
#  124400
#  142422
#  158755
#  171532
#  180102
#  192865
#
# Disc length: 2685 seconds
#
# Revision: 0
# Processed by: cddbd v1.4PL0 Copyright (c) Steve Scherf et al.
# Submitted via: AltoMP3 Maker 3.0
#
DISCID=c40a7b0f
DTITLE=Various Artist - American Christmas Treasures
DYEAR=1900
DGENRE=
TTITLE0=Dec The Halls
TTITLE1=Have Yourself a Merry Little Christmas
TTITLE2=Here Comes Santa Claus
TTITLE3=Awai in A Manger
TTITLE4=O Little Town of Bethlehem
TTITLE5=Christmas Is
TTITLE6=Joy to the World
TTITLE7=I Saw Three Ships
TTITLE8=Santa Claus is Coming to Town
TTITLE9=Adeste Fideles
TTITLE10=O Holy Night
TTITLE11=Marvelous Toy
TTITLE12=Jingle Bell Rock
TTITLE13=Here was a Man
TTITLE14=Santa's Comin' In a Whirly Bird
EXTD=
EXTT0=
EXTT1=
EXTT2=
EXTT3=
EXTT4=
EXTT5=
EXTT6=
EXTT7=
EXTT8=
EXTT9=
EXTT10=
EXTT11=
EXTT12=
EXTT13=
EXTT14=
PLAYORDER=
